<mxfile host="app.diagrams.net" modified="2022-05-15T06:57:09.107Z" agent="5.0 (Windows NT 10.0; Win64; x64) AppleWebKit/537.36 (KHTML, like Gecko) Chrome/101.0.4951.67 Safari/537.36" etag="7edvEhcH-csC11q6R-7U" version="18.0.4" type="github">
  <diagram name="Page-1" id="9361dd3d-8414-5efd-6122-117bd74ce7a7">
    <mxGraphModel dx="1422" dy="882" grid="1" gridSize="10" guides="1" tooltips="1" connect="1" arrows="1" fold="1" page="0" pageScale="1.5" pageWidth="826" pageHeight="1169" background="none" math="0" shadow="0">
      <root>
        <mxCell id="0" />
        <mxCell id="1" parent="0" />
        <mxCell id="2" value="" style="fillColor=#CC4125;strokeColor=#660000;fontSize=20;" parent="1" vertex="1">
          <mxGeometry x="200" y="150" width="10" height="50" as="geometry" />
        </mxCell>
        <mxCell id="4" value="&lt;&lt;Boundary&gt;&gt;&#xa;:MocapWidget" style="shadow=1;fillColor=#A2C4C9;strokeColor=none;fontStyle=0;fontSize=20;" parent="1" vertex="1">
          <mxGeometry x="131.25" y="50" width="147.5" height="60" as="geometry" />
        </mxCell>
        <mxCell id="12" value="" style="edgeStyle=none;verticalLabelPosition=top;verticalAlign=bottom;labelPosition=left;align=right;endArrow=none;startArrow=classic;dashed=1;fontSize=20;" parent="1" edge="1">
          <mxGeometry x="41.25" y="89.99887345679012" width="100" height="100" as="geometry">
            <mxPoint x="41.25" y="189.99887345679014" as="sourcePoint" />
            <mxPoint x="190" y="190" as="targetPoint" />
          </mxGeometry>
        </mxCell>
        <mxCell id="42" value="" style="fillColor=#CC4125;strokeColor=#660000;fontSize=20;" parent="1" vertex="1">
          <mxGeometry x="200" y="410" width="10" height="170" as="geometry" />
        </mxCell>
        <mxCell id="TpufT0unstHseazIbA1N-89" value="User" style="shape=umlActor;verticalLabelPosition=bottom;verticalAlign=top;html=1;outlineConnect=0;fontSize=20;" vertex="1" parent="1">
          <mxGeometry x="20" y="30" width="30" height="60" as="geometry" />
        </mxCell>
        <mxCell id="TpufT0unstHseazIbA1N-90" value="" style="fillColor=#CC4125;strokeColor=#660000;fontSize=20;" vertex="1" parent="1">
          <mxGeometry x="30" y="139.39" width="10" height="440.61" as="geometry" />
        </mxCell>
        <mxCell id="TpufT0unstHseazIbA1N-91" value="" style="edgeStyle=none;endArrow=none;dashed=1;fontSize=20;" edge="1" parent="1">
          <mxGeometry x="-25.93215277777756" y="194.99999999999997" width="100" height="100" as="geometry">
            <mxPoint x="34.58000000000004" y="130" as="sourcePoint" />
            <mxPoint x="35" y="600" as="targetPoint" />
          </mxGeometry>
        </mxCell>
        <mxCell id="TpufT0unstHseazIbA1N-93" value="" style="endArrow=classic;html=1;rounded=0;fontSize=20;exitX=1.417;exitY=0.052;exitDx=0;exitDy=0;exitPerimeter=0;entryX=0;entryY=0.25;entryDx=0;entryDy=0;" edge="1" parent="1" source="TpufT0unstHseazIbA1N-90" target="2">
          <mxGeometry width="50" height="50" relative="1" as="geometry">
            <mxPoint x="40" y="200" as="sourcePoint" />
            <mxPoint x="190" y="160" as="targetPoint" />
          </mxGeometry>
        </mxCell>
        <mxCell id="TpufT0unstHseazIbA1N-94" value="读取旧的采集" style="text;html=1;strokeColor=none;fillColor=none;align=center;verticalAlign=middle;whiteSpace=wrap;rounded=0;fontSize=20;" vertex="1" parent="1">
          <mxGeometry x="60" y="130" width="130" height="30" as="geometry" />
        </mxCell>
        <mxCell id="TpufT0unstHseazIbA1N-95" value="打开文件" style="text;html=1;align=center;verticalAlign=middle;resizable=0;points=[];autosize=1;strokeColor=none;fillColor=none;fontSize=20;" vertex="1" parent="1">
          <mxGeometry x="70" y="160" width="100" height="30" as="geometry" />
        </mxCell>
        <mxCell id="TpufT0unstHseazIbA1N-98" value="" style="fillColor=#CC4125;strokeColor=#660000;fontSize=20;" vertex="1" parent="1">
          <mxGeometry x="200" y="220" width="10" height="50" as="geometry" />
        </mxCell>
        <mxCell id="TpufT0unstHseazIbA1N-100" value="" style="endArrow=classic;html=1;rounded=0;fontSize=20;entryX=0;entryY=0.25;entryDx=0;entryDy=0;" edge="1" parent="1" target="TpufT0unstHseazIbA1N-98">
          <mxGeometry width="50" height="50" relative="1" as="geometry">
            <mxPoint x="44" y="233" as="sourcePoint" />
            <mxPoint x="190" y="220" as="targetPoint" />
          </mxGeometry>
        </mxCell>
        <mxCell id="TpufT0unstHseazIbA1N-102" value="输入文件路径" style="text;html=1;strokeColor=none;fillColor=none;align=center;verticalAlign=middle;whiteSpace=wrap;rounded=0;fontSize=20;" vertex="1" parent="1">
          <mxGeometry x="50" y="200" width="150" height="30" as="geometry" />
        </mxCell>
        <mxCell id="TpufT0unstHseazIbA1N-103" value="&lt;&lt;Control&gt;&gt;&#xa;:CRTProtocol" style="shadow=1;fillColor=#A2C4C9;strokeColor=none;fontStyle=0;fontSize=20;" vertex="1" parent="1">
          <mxGeometry x="300" y="50" width="147.5" height="60" as="geometry" />
        </mxCell>
        <mxCell id="TpufT0unstHseazIbA1N-104" value="" style="fillColor=#CC4125;strokeColor=#660000;fontSize=20;" vertex="1" parent="1">
          <mxGeometry x="368.75" y="250" width="10" height="120" as="geometry" />
        </mxCell>
        <mxCell id="TpufT0unstHseazIbA1N-105" value="" style="endArrow=classic;html=1;rounded=0;fontSize=20;entryX=0;entryY=0.25;entryDx=0;entryDy=0;" edge="1" parent="1">
          <mxGeometry width="50" height="50" relative="1" as="geometry">
            <mxPoint x="212.75" y="260.5" as="sourcePoint" />
            <mxPoint x="368.75" y="260" as="targetPoint" />
          </mxGeometry>
        </mxCell>
        <mxCell id="TpufT0unstHseazIbA1N-106" value="读取文件" style="text;html=1;strokeColor=none;fillColor=none;align=center;verticalAlign=middle;whiteSpace=wrap;rounded=0;fontSize=20;" vertex="1" parent="1">
          <mxGeometry x="210" y="230" width="150" height="30" as="geometry" />
        </mxCell>
        <mxCell id="TpufT0unstHseazIbA1N-107" value="" style="endArrow=classic;html=1;rounded=0;fontSize=20;entryX=0.919;entryY=1.083;entryDx=0;entryDy=0;entryPerimeter=0;" edge="1" parent="1" target="TpufT0unstHseazIbA1N-108">
          <mxGeometry width="50" height="50" relative="1" as="geometry">
            <mxPoint x="47" y="323" as="sourcePoint" />
            <mxPoint x="203" y="322.5" as="targetPoint" />
          </mxGeometry>
        </mxCell>
        <mxCell id="TpufT0unstHseazIbA1N-108" value="发送控制指令" style="text;html=1;strokeColor=none;fillColor=none;align=center;verticalAlign=middle;whiteSpace=wrap;rounded=0;fontSize=20;" vertex="1" parent="1">
          <mxGeometry x="53" y="290" width="150" height="30" as="geometry" />
        </mxCell>
        <mxCell id="TpufT0unstHseazIbA1N-109" value="" style="fillColor=#CC4125;strokeColor=#660000;fontSize=20;" vertex="1" parent="1">
          <mxGeometry x="200" y="315" width="10" height="50" as="geometry" />
        </mxCell>
        <mxCell id="TpufT0unstHseazIbA1N-110" value="" style="endArrow=classic;html=1;rounded=0;fontSize=20;entryX=0.919;entryY=1.083;entryDx=0;entryDy=0;entryPerimeter=0;" edge="1" parent="1" target="TpufT0unstHseazIbA1N-111">
          <mxGeometry width="50" height="50" relative="1" as="geometry">
            <mxPoint x="212.75" y="353" as="sourcePoint" />
            <mxPoint x="368.75" y="352.5" as="targetPoint" />
          </mxGeometry>
        </mxCell>
        <mxCell id="TpufT0unstHseazIbA1N-111" value="发送控制指令" style="text;html=1;strokeColor=none;fillColor=none;align=center;verticalAlign=middle;whiteSpace=wrap;rounded=0;fontSize=20;" vertex="1" parent="1">
          <mxGeometry x="218.75" y="320" width="150" height="30" as="geometry" />
        </mxCell>
        <mxCell id="TpufT0unstHseazIbA1N-113" value="&lt;&lt;Entity&gt;&gt;&#xa;:CRTPacket" style="shadow=1;fillColor=#A2C4C9;strokeColor=none;fontStyle=0;fontSize=20;" vertex="1" parent="1">
          <mxGeometry x="940" y="50" width="147.5" height="60" as="geometry" />
        </mxCell>
        <mxCell id="TpufT0unstHseazIbA1N-117" value="&lt;&lt;Control&gt;&gt;&#xa;:JsonHandler" style="shadow=1;fillColor=#A2C4C9;strokeColor=none;fontStyle=0;fontSize=20;" vertex="1" parent="1">
          <mxGeometry x="460" y="50" width="147.5" height="60" as="geometry" />
        </mxCell>
        <mxCell id="TpufT0unstHseazIbA1N-119" value="" style="fillColor=#CC4125;strokeColor=#660000;fontSize=20;" vertex="1" parent="1">
          <mxGeometry x="528.75" y="300" width="10" height="100" as="geometry" />
        </mxCell>
        <mxCell id="TpufT0unstHseazIbA1N-123" value="&lt;&lt;Control&gt;&gt;&#xa;:TcpServer" style="shadow=1;fillColor=#A2C4C9;strokeColor=none;fontStyle=0;fontSize=20;" vertex="1" parent="1">
          <mxGeometry x="620" y="50" width="147.5" height="60" as="geometry" />
        </mxCell>
        <mxCell id="TpufT0unstHseazIbA1N-124" value="" style="fillColor=#CC4125;strokeColor=#660000;fontSize=20;" vertex="1" parent="1">
          <mxGeometry x="688.75" y="370" width="10" height="60" as="geometry" />
        </mxCell>
        <mxCell id="TpufT0unstHseazIbA1N-125" value="" style="endArrow=classic;html=1;rounded=0;fontSize=20;entryX=0.947;entryY=1;entryDx=0;entryDy=0;entryPerimeter=0;" edge="1" parent="1">
          <mxGeometry width="50" height="50" relative="1" as="geometry">
            <mxPoint x="538.7499999999998" y="390.5" as="sourcePoint" />
            <mxPoint x="688.7037499999999" y="390" as="targetPoint" />
          </mxGeometry>
        </mxCell>
        <mxCell id="TpufT0unstHseazIbA1N-127" value="" style="fillColor=#CC4125;strokeColor=#660000;fontSize=20;" vertex="1" parent="1">
          <mxGeometry x="1008.75" y="260" width="10" height="70" as="geometry" />
        </mxCell>
        <mxCell id="TpufT0unstHseazIbA1N-128" value="" style="endArrow=classic;html=1;rounded=0;fontSize=20;" edge="1" parent="1">
          <mxGeometry width="50" height="50" relative="1" as="geometry">
            <mxPoint x="378.75" y="270" as="sourcePoint" />
            <mxPoint x="1000" y="270" as="targetPoint" />
          </mxGeometry>
        </mxCell>
        <mxCell id="TpufT0unstHseazIbA1N-130" value="调用传感器信息" style="text;html=1;strokeColor=none;fillColor=none;align=center;verticalAlign=middle;whiteSpace=wrap;rounded=0;fontSize=20;" vertex="1" parent="1">
          <mxGeometry x="538.75" y="240" width="150" height="30" as="geometry" />
        </mxCell>
        <mxCell id="TpufT0unstHseazIbA1N-131" value="发送Tcp包给Unity程序" style="text;html=1;strokeColor=none;fillColor=none;align=center;verticalAlign=middle;whiteSpace=wrap;rounded=0;fontSize=20;" vertex="1" parent="1">
          <mxGeometry x="700" y="390" width="220" height="30" as="geometry" />
        </mxCell>
        <mxCell id="TpufT0unstHseazIbA1N-132" value="转换Json数据包" style="text;html=1;strokeColor=none;fillColor=none;align=center;verticalAlign=middle;whiteSpace=wrap;rounded=0;fontSize=20;" vertex="1" parent="1">
          <mxGeometry x="538.75" y="360" width="150" height="30" as="geometry" />
        </mxCell>
        <mxCell id="TpufT0unstHseazIbA1N-133" value="" style="edgeStyle=none;verticalLabelPosition=top;verticalAlign=bottom;labelPosition=left;align=right;endArrow=none;startArrow=classic;dashed=1;fontSize=20;" edge="1" parent="1">
          <mxGeometry x="538.75" y="214.16887345679012" width="100" height="100" as="geometry">
            <mxPoint x="538.75" y="314.1688734567901" as="sourcePoint" />
            <mxPoint x="1000" y="314" as="targetPoint" />
          </mxGeometry>
        </mxCell>
        <mxCell id="TpufT0unstHseazIbA1N-134" value="&lt;span style=&quot;&quot;&gt;返回传感器信息&lt;/span&gt;" style="text;html=1;align=center;verticalAlign=middle;resizable=0;points=[];autosize=1;strokeColor=none;fillColor=none;fontSize=20;" vertex="1" parent="1">
          <mxGeometry x="540" y="285" width="160" height="30" as="geometry" />
        </mxCell>
        <mxCell id="TpufT0unstHseazIbA1N-137" value="" style="endArrow=classic;html=1;rounded=0;fontSize=20;" edge="1" parent="1">
          <mxGeometry width="50" height="50" relative="1" as="geometry">
            <mxPoint x="710" y="420" as="sourcePoint" />
            <mxPoint x="920" y="420" as="targetPoint" />
          </mxGeometry>
        </mxCell>
        <mxCell id="TpufT0unstHseazIbA1N-138" value="" style="endArrow=classic;html=1;rounded=0;fontSize=20;entryX=0.919;entryY=1.083;entryDx=0;entryDy=0;entryPerimeter=0;" edge="1" parent="1" target="TpufT0unstHseazIbA1N-139">
          <mxGeometry width="50" height="50" relative="1" as="geometry">
            <mxPoint x="42" y="433" as="sourcePoint" />
            <mxPoint x="198" y="432.5" as="targetPoint" />
          </mxGeometry>
        </mxCell>
        <mxCell id="TpufT0unstHseazIbA1N-139" value="保存" style="text;html=1;strokeColor=none;fillColor=none;align=center;verticalAlign=middle;whiteSpace=wrap;rounded=0;fontSize=20;" vertex="1" parent="1">
          <mxGeometry x="48" y="400" width="150" height="30" as="geometry" />
        </mxCell>
        <mxCell id="TpufT0unstHseazIbA1N-140" value="" style="endArrow=classic;html=1;rounded=0;fontSize=20;entryX=0.919;entryY=1.083;entryDx=0;entryDy=0;entryPerimeter=0;" edge="1" parent="1" target="TpufT0unstHseazIbA1N-141">
          <mxGeometry width="50" height="50" relative="1" as="geometry">
            <mxPoint x="212.75" y="463" as="sourcePoint" />
            <mxPoint x="368.75" y="462.5" as="targetPoint" />
          </mxGeometry>
        </mxCell>
        <mxCell id="TpufT0unstHseazIbA1N-141" value="保存采集文件" style="text;html=1;strokeColor=none;fillColor=none;align=center;verticalAlign=middle;whiteSpace=wrap;rounded=0;fontSize=20;" vertex="1" parent="1">
          <mxGeometry x="218.75" y="430" width="150" height="30" as="geometry" />
        </mxCell>
        <mxCell id="TpufT0unstHseazIbA1N-142" value="" style="fillColor=#CC4125;strokeColor=#660000;fontSize=20;" vertex="1" parent="1">
          <mxGeometry x="368.75" y="450" width="10" height="110" as="geometry" />
        </mxCell>
        <mxCell id="TpufT0unstHseazIbA1N-144" value="&lt;&lt;Entity&gt;&gt;&#xa;:Capture" style="shadow=1;fillColor=#A2C4C9;strokeColor=none;fontStyle=0;fontSize=20;" vertex="1" parent="1">
          <mxGeometry x="1100" y="50" width="147.5" height="60" as="geometry" />
        </mxCell>
        <mxCell id="TpufT0unstHseazIbA1N-149" value="" style="endArrow=classic;html=1;rounded=0;fontSize=20;" edge="1" parent="1">
          <mxGeometry width="50" height="50" relative="1" as="geometry">
            <mxPoint x="383.13" y="503" as="sourcePoint" />
            <mxPoint x="1160" y="500" as="targetPoint" />
          </mxGeometry>
        </mxCell>
        <mxCell id="TpufT0unstHseazIbA1N-150" value="保存" style="text;html=1;strokeColor=none;fillColor=none;align=center;verticalAlign=middle;whiteSpace=wrap;rounded=0;fontSize=20;" vertex="1" parent="1">
          <mxGeometry x="670" y="470" width="150" height="30" as="geometry" />
        </mxCell>
        <mxCell id="TpufT0unstHseazIbA1N-152" value="&lt;&lt;Control&gt;&gt;&#xa;:QSqlQuery" style="shadow=1;fillColor=#A2C4C9;strokeColor=none;fontStyle=0;fontSize=20;" vertex="1" parent="1">
          <mxGeometry x="782.5" y="50" width="147.5" height="60" as="geometry" />
        </mxCell>
        <mxCell id="TpufT0unstHseazIbA1N-145" value="" style="fillColor=#CC4125;strokeColor=#660000;fontSize=20;" vertex="1" parent="1">
          <mxGeometry x="851.25" y="525" width="10" height="40" as="geometry" />
        </mxCell>
        <mxCell id="TpufT0unstHseazIbA1N-155" value="" style="endArrow=classic;html=1;rounded=0;fontSize=20;" edge="1" parent="1">
          <mxGeometry width="50" height="50" relative="1" as="geometry">
            <mxPoint x="378.75" y="543" as="sourcePoint" />
            <mxPoint x="850" y="540" as="targetPoint" />
          </mxGeometry>
        </mxCell>
        <mxCell id="TpufT0unstHseazIbA1N-156" value="录入SQL数据库中" style="text;html=1;strokeColor=none;fillColor=none;align=center;verticalAlign=middle;whiteSpace=wrap;rounded=0;fontSize=20;" vertex="1" parent="1">
          <mxGeometry x="507.5" y="510" width="191.25" height="30" as="geometry" />
        </mxCell>
        <mxCell id="TpufT0unstHseazIbA1N-157" value="" style="fillColor=#CC4125;strokeColor=#660000;fontSize=20;" vertex="1" parent="1">
          <mxGeometry x="1168.75" y="480" width="10" height="40" as="geometry" />
        </mxCell>
        <mxCell id="TpufT0unstHseazIbA1N-158" value="" style="edgeStyle=none;endArrow=none;dashed=1;fontSize=20;" edge="1" parent="1">
          <mxGeometry x="143.98784722222243" y="194.99999999999997" width="100" height="100" as="geometry">
            <mxPoint x="204.49999999999991" y="130" as="sourcePoint" />
            <mxPoint x="204.92" y="600" as="targetPoint" />
          </mxGeometry>
        </mxCell>
        <mxCell id="TpufT0unstHseazIbA1N-159" value="" style="edgeStyle=none;endArrow=none;dashed=1;fontSize=20;" edge="1" parent="1">
          <mxGeometry x="312.73784722222246" y="194.99999999999997" width="100" height="100" as="geometry">
            <mxPoint x="373.24999999999994" y="130" as="sourcePoint" />
            <mxPoint x="373.67" y="600" as="targetPoint" />
          </mxGeometry>
        </mxCell>
        <mxCell id="TpufT0unstHseazIbA1N-160" value="" style="edgeStyle=none;endArrow=none;dashed=1;fontSize=20;" edge="1" parent="1">
          <mxGeometry x="472.73784722222246" y="305" width="100" height="100" as="geometry">
            <mxPoint x="534" y="280" as="sourcePoint" />
            <mxPoint x="534" y="410" as="targetPoint" />
          </mxGeometry>
        </mxCell>
        <mxCell id="TpufT0unstHseazIbA1N-161" value="" style="edgeStyle=none;endArrow=none;dashed=1;fontSize=20;" edge="1" parent="1">
          <mxGeometry x="632.7378472222224" y="194.99999999999997" width="100" height="100" as="geometry">
            <mxPoint x="693.2499999999999" y="130" as="sourcePoint" />
            <mxPoint x="693.67" y="600" as="targetPoint" />
          </mxGeometry>
        </mxCell>
        <mxCell id="TpufT0unstHseazIbA1N-162" value="" style="edgeStyle=none;endArrow=none;dashed=1;fontSize=20;" edge="1" parent="1">
          <mxGeometry x="795.2378472222224" y="179.99999999999997" width="100" height="100" as="geometry">
            <mxPoint x="856" y="510" as="sourcePoint" />
            <mxPoint x="856.17" y="585" as="targetPoint" />
          </mxGeometry>
        </mxCell>
        <mxCell id="TpufT0unstHseazIbA1N-163" value="" style="edgeStyle=none;endArrow=none;dashed=1;fontSize=20;" edge="1" parent="1">
          <mxGeometry x="954.6178472222224" y="-200.00000000000003" width="100" height="100" as="geometry">
            <mxPoint x="1015.38" y="130" as="sourcePoint" />
            <mxPoint x="1012.13" y="600" as="targetPoint" />
          </mxGeometry>
        </mxCell>
        <mxCell id="TpufT0unstHseazIbA1N-164" value="" style="edgeStyle=none;endArrow=none;dashed=1;fontSize=20;" edge="1" parent="1">
          <mxGeometry x="1112.4878472222224" y="129.99999999999997" width="100" height="100" as="geometry">
            <mxPoint x="1173.25" y="460" as="sourcePoint" />
            <mxPoint x="1173.42" y="535" as="targetPoint" />
          </mxGeometry>
        </mxCell>
      </root>
    </mxGraphModel>
  </diagram>
</mxfile>
